<mxfile host="Electron" modified="2023-12-20T11:01:58.311Z" agent="Mozilla/5.0 (Windows NT 10.0; Win64; x64) AppleWebKit/537.36 (KHTML, like Gecko) draw.io/22.1.11 Chrome/114.0.5735.289 Electron/25.9.8 Safari/537.36" etag="tVFUck_zpdpJ8BIVqUXs" version="22.1.11" type="device">
  <diagram id="C5RBs43oDa-KdzZeNtuy" name="Page-1">
    <mxGraphModel dx="1419" dy="847" grid="1" gridSize="10" guides="1" tooltips="1" connect="1" arrows="1" fold="1" page="1" pageScale="1" pageWidth="827" pageHeight="1169" background="none" math="0" shadow="0">
      <root>
        <mxCell id="WIyWlLk6GJQsqaUBKTNV-0" />
        <mxCell id="WIyWlLk6GJQsqaUBKTNV-1" parent="WIyWlLk6GJQsqaUBKTNV-0" />
        <mxCell id="jwFTyUWH3K64vKGYI3gZ-3" value="" style="edgeStyle=orthogonalEdgeStyle;rounded=0;orthogonalLoop=1;jettySize=auto;html=1;" parent="WIyWlLk6GJQsqaUBKTNV-1" source="jwFTyUWH3K64vKGYI3gZ-0" target="jwFTyUWH3K64vKGYI3gZ-2" edge="1">
          <mxGeometry relative="1" as="geometry" />
        </mxCell>
        <mxCell id="jwFTyUWH3K64vKGYI3gZ-0" value="Logged in" style="ellipse;whiteSpace=wrap;html=1;fillColor=#008a00;fontColor=#ffffff;strokeColor=#005700;" parent="WIyWlLk6GJQsqaUBKTNV-1" vertex="1">
          <mxGeometry width="120" height="80" as="geometry" />
        </mxCell>
        <mxCell id="jwFTyUWH3K64vKGYI3gZ-5" value="" style="edgeStyle=orthogonalEdgeStyle;rounded=0;orthogonalLoop=1;jettySize=auto;html=1;entryX=0.5;entryY=0;entryDx=0;entryDy=0;" parent="WIyWlLk6GJQsqaUBKTNV-1" source="jwFTyUWH3K64vKGYI3gZ-2" target="jwFTyUWH3K64vKGYI3gZ-4" edge="1">
          <mxGeometry relative="1" as="geometry" />
        </mxCell>
        <mxCell id="jwFTyUWH3K64vKGYI3gZ-10" style="edgeStyle=orthogonalEdgeStyle;rounded=0;orthogonalLoop=1;jettySize=auto;html=1;entryX=0.5;entryY=0;entryDx=0;entryDy=0;" parent="WIyWlLk6GJQsqaUBKTNV-1" source="jwFTyUWH3K64vKGYI3gZ-2" target="jwFTyUWH3K64vKGYI3gZ-6" edge="1">
          <mxGeometry relative="1" as="geometry">
            <Array as="points">
              <mxPoint x="130" y="160" />
              <mxPoint x="130" y="20" />
              <mxPoint x="940" y="20" />
            </Array>
          </mxGeometry>
        </mxCell>
        <mxCell id="jwFTyUWH3K64vKGYI3gZ-11" style="edgeStyle=orthogonalEdgeStyle;rounded=0;orthogonalLoop=1;jettySize=auto;html=1;entryX=0.5;entryY=0;entryDx=0;entryDy=0;" parent="WIyWlLk6GJQsqaUBKTNV-1" source="jwFTyUWH3K64vKGYI3gZ-2" target="jwFTyUWH3K64vKGYI3gZ-8" edge="1">
          <mxGeometry relative="1" as="geometry">
            <Array as="points">
              <mxPoint x="130" y="160" />
              <mxPoint x="130" y="20" />
              <mxPoint x="1760" y="20" />
            </Array>
          </mxGeometry>
        </mxCell>
        <mxCell id="jwFTyUWH3K64vKGYI3gZ-13" value="" style="edgeStyle=orthogonalEdgeStyle;rounded=0;orthogonalLoop=1;jettySize=auto;html=1;entryX=0.5;entryY=0;entryDx=0;entryDy=0;" parent="WIyWlLk6GJQsqaUBKTNV-1" source="jwFTyUWH3K64vKGYI3gZ-2" target="jwFTyUWH3K64vKGYI3gZ-12" edge="1">
          <mxGeometry relative="1" as="geometry">
            <Array as="points">
              <mxPoint x="130" y="160" />
              <mxPoint x="130" y="20" />
              <mxPoint x="2620" y="20" />
            </Array>
          </mxGeometry>
        </mxCell>
        <mxCell id="jwFTyUWH3K64vKGYI3gZ-233" style="edgeStyle=orthogonalEdgeStyle;rounded=0;orthogonalLoop=1;jettySize=auto;html=1;" parent="WIyWlLk6GJQsqaUBKTNV-1" source="jwFTyUWH3K64vKGYI3gZ-2" target="jwFTyUWH3K64vKGYI3gZ-232" edge="1">
          <mxGeometry relative="1" as="geometry">
            <Array as="points">
              <mxPoint x="130" y="160" />
              <mxPoint x="130" y="20" />
              <mxPoint x="2530" y="20" />
              <mxPoint x="2530" y="390" />
            </Array>
          </mxGeometry>
        </mxCell>
        <mxCell id="jwFTyUWH3K64vKGYI3gZ-2" value="got &lt;br&gt;following&lt;br&gt;Options" style="rhombus;whiteSpace=wrap;html=1;fillColor=none;" parent="WIyWlLk6GJQsqaUBKTNV-1" vertex="1">
          <mxGeometry x="20" y="120" width="80" height="80" as="geometry" />
        </mxCell>
        <mxCell id="jwFTyUWH3K64vKGYI3gZ-19" value="" style="edgeStyle=orthogonalEdgeStyle;rounded=0;orthogonalLoop=1;jettySize=auto;html=1;" parent="WIyWlLk6GJQsqaUBKTNV-1" source="jwFTyUWH3K64vKGYI3gZ-4" target="jwFTyUWH3K64vKGYI3gZ-18" edge="1">
          <mxGeometry relative="1" as="geometry" />
        </mxCell>
        <mxCell id="jwFTyUWH3K64vKGYI3gZ-4" value="Create a new job" style="whiteSpace=wrap;html=1;fillColor=#e3c800;fontColor=#000000;strokeColor=#B09500;" parent="WIyWlLk6GJQsqaUBKTNV-1" vertex="1">
          <mxGeometry x="160" y="40" width="120" height="60" as="geometry" />
        </mxCell>
        <mxCell id="jwFTyUWH3K64vKGYI3gZ-52" value="" style="edgeStyle=orthogonalEdgeStyle;rounded=0;orthogonalLoop=1;jettySize=auto;html=1;" parent="WIyWlLk6GJQsqaUBKTNV-1" source="jwFTyUWH3K64vKGYI3gZ-6" target="jwFTyUWH3K64vKGYI3gZ-51" edge="1">
          <mxGeometry relative="1" as="geometry" />
        </mxCell>
        <mxCell id="jwFTyUWH3K64vKGYI3gZ-6" value="Create a saving&amp;nbsp;&lt;br&gt;account" style="whiteSpace=wrap;html=1;fillColor=#e3c800;fontColor=#000000;strokeColor=#B09500;" parent="WIyWlLk6GJQsqaUBKTNV-1" vertex="1">
          <mxGeometry x="880" y="40" width="120" height="60" as="geometry" />
        </mxCell>
        <mxCell id="jwFTyUWH3K64vKGYI3gZ-136" value="" style="edgeStyle=orthogonalEdgeStyle;rounded=0;orthogonalLoop=1;jettySize=auto;html=1;" parent="WIyWlLk6GJQsqaUBKTNV-1" source="jwFTyUWH3K64vKGYI3gZ-8" target="jwFTyUWH3K64vKGYI3gZ-135" edge="1">
          <mxGeometry relative="1" as="geometry" />
        </mxCell>
        <mxCell id="jwFTyUWH3K64vKGYI3gZ-8" value="Create a loan" style="whiteSpace=wrap;html=1;fillColor=#e3c800;fontColor=#000000;strokeColor=#B09500;" parent="WIyWlLk6GJQsqaUBKTNV-1" vertex="1">
          <mxGeometry x="1700" y="40" width="120" height="60" as="geometry" />
        </mxCell>
        <mxCell id="jwFTyUWH3K64vKGYI3gZ-195" value="" style="edgeStyle=orthogonalEdgeStyle;rounded=0;orthogonalLoop=1;jettySize=auto;html=1;" parent="WIyWlLk6GJQsqaUBKTNV-1" source="jwFTyUWH3K64vKGYI3gZ-12" target="jwFTyUWH3K64vKGYI3gZ-194" edge="1">
          <mxGeometry relative="1" as="geometry" />
        </mxCell>
        <mxCell id="jwFTyUWH3K64vKGYI3gZ-12" value="Insert today&#39;s&lt;br&gt;Budget" style="whiteSpace=wrap;html=1;fillColor=#e3c800;fontColor=#000000;strokeColor=#B09500;" parent="WIyWlLk6GJQsqaUBKTNV-1" vertex="1">
          <mxGeometry x="2560" y="40" width="120" height="60" as="geometry" />
        </mxCell>
        <mxCell id="jwFTyUWH3K64vKGYI3gZ-22" value="" style="edgeStyle=orthogonalEdgeStyle;rounded=0;orthogonalLoop=1;jettySize=auto;html=1;" parent="WIyWlLk6GJQsqaUBKTNV-1" source="jwFTyUWH3K64vKGYI3gZ-16" target="jwFTyUWH3K64vKGYI3gZ-21" edge="1">
          <mxGeometry relative="1" as="geometry" />
        </mxCell>
        <mxCell id="jwFTyUWH3K64vKGYI3gZ-16" value="Please write something about your&lt;br&gt;new job&lt;br&gt;(Description)" style="whiteSpace=wrap;html=1;fillColor=none;" parent="WIyWlLk6GJQsqaUBKTNV-1" vertex="1">
          <mxGeometry x="160" y="280" width="120" height="60" as="geometry" />
        </mxCell>
        <mxCell id="jwFTyUWH3K64vKGYI3gZ-20" value="" style="edgeStyle=orthogonalEdgeStyle;rounded=0;orthogonalLoop=1;jettySize=auto;html=1;" parent="WIyWlLk6GJQsqaUBKTNV-1" source="jwFTyUWH3K64vKGYI3gZ-18" target="jwFTyUWH3K64vKGYI3gZ-16" edge="1">
          <mxGeometry relative="1" as="geometry" />
        </mxCell>
        <mxCell id="jwFTyUWH3K64vKGYI3gZ-18" value="Job Name" style="whiteSpace=wrap;html=1;fillColor=none;" parent="WIyWlLk6GJQsqaUBKTNV-1" vertex="1">
          <mxGeometry x="160" y="160" width="120" height="60" as="geometry" />
        </mxCell>
        <mxCell id="jwFTyUWH3K64vKGYI3gZ-58" value="" style="edgeStyle=orthogonalEdgeStyle;rounded=0;orthogonalLoop=1;jettySize=auto;html=1;" parent="WIyWlLk6GJQsqaUBKTNV-1" source="jwFTyUWH3K64vKGYI3gZ-21" target="jwFTyUWH3K64vKGYI3gZ-57" edge="1">
          <mxGeometry relative="1" as="geometry" />
        </mxCell>
        <mxCell id="jwFTyUWH3K64vKGYI3gZ-21" value="Income" style="whiteSpace=wrap;html=1;fillColor=none;" parent="WIyWlLk6GJQsqaUBKTNV-1" vertex="1">
          <mxGeometry x="354" y="280" width="120" height="60" as="geometry" />
        </mxCell>
        <mxCell id="jwFTyUWH3K64vKGYI3gZ-41" value="" style="edgeStyle=orthogonalEdgeStyle;rounded=0;orthogonalLoop=1;jettySize=auto;html=1;exitX=0;exitY=0.5;exitDx=0;exitDy=0;" parent="WIyWlLk6GJQsqaUBKTNV-1" source="jwFTyUWH3K64vKGYI3gZ-68" target="jwFTyUWH3K64vKGYI3gZ-40" edge="1">
          <mxGeometry relative="1" as="geometry">
            <mxPoint x="364" y="815" as="sourcePoint" />
          </mxGeometry>
        </mxCell>
        <mxCell id="jwFTyUWH3K64vKGYI3gZ-45" value="Yes" style="edgeLabel;html=1;align=center;verticalAlign=middle;resizable=0;points=[];" parent="jwFTyUWH3K64vKGYI3gZ-41" vertex="1" connectable="0">
          <mxGeometry x="-0.2563" relative="1" as="geometry">
            <mxPoint as="offset" />
          </mxGeometry>
        </mxCell>
        <mxCell id="jwFTyUWH3K64vKGYI3gZ-43" value="" style="edgeStyle=orthogonalEdgeStyle;rounded=0;orthogonalLoop=1;jettySize=auto;html=1;exitX=1;exitY=0.5;exitDx=0;exitDy=0;" parent="WIyWlLk6GJQsqaUBKTNV-1" source="jwFTyUWH3K64vKGYI3gZ-68" target="jwFTyUWH3K64vKGYI3gZ-42" edge="1">
          <mxGeometry relative="1" as="geometry">
            <mxPoint x="464" y="815" as="sourcePoint" />
          </mxGeometry>
        </mxCell>
        <mxCell id="jwFTyUWH3K64vKGYI3gZ-46" value="No" style="edgeLabel;html=1;align=center;verticalAlign=middle;resizable=0;points=[];" parent="jwFTyUWH3K64vKGYI3gZ-43" vertex="1" connectable="0">
          <mxGeometry x="-0.18" y="1" relative="1" as="geometry">
            <mxPoint as="offset" />
          </mxGeometry>
        </mxCell>
        <mxCell id="jwFTyUWH3K64vKGYI3gZ-49" style="edgeStyle=orthogonalEdgeStyle;rounded=0;orthogonalLoop=1;jettySize=auto;html=1;entryX=0.5;entryY=0;entryDx=0;entryDy=0;" parent="WIyWlLk6GJQsqaUBKTNV-1" source="jwFTyUWH3K64vKGYI3gZ-40" target="jwFTyUWH3K64vKGYI3gZ-47" edge="1">
          <mxGeometry relative="1" as="geometry" />
        </mxCell>
        <mxCell id="jwFTyUWH3K64vKGYI3gZ-40" value="Start from Zero" style="whiteSpace=wrap;html=1;rounded=0;fillColor=none;" parent="WIyWlLk6GJQsqaUBKTNV-1" vertex="1">
          <mxGeometry x="240" y="900" width="120" height="60" as="geometry" />
        </mxCell>
        <mxCell id="jwFTyUWH3K64vKGYI3gZ-48" value="" style="edgeStyle=orthogonalEdgeStyle;rounded=0;orthogonalLoop=1;jettySize=auto;html=1;" parent="WIyWlLk6GJQsqaUBKTNV-1" source="jwFTyUWH3K64vKGYI3gZ-42" target="jwFTyUWH3K64vKGYI3gZ-47" edge="1">
          <mxGeometry relative="1" as="geometry" />
        </mxCell>
        <mxCell id="jwFTyUWH3K64vKGYI3gZ-42" value="Insert the amount you&lt;br&gt;Already have" style="whiteSpace=wrap;html=1;rounded=0;fillColor=none;" parent="WIyWlLk6GJQsqaUBKTNV-1" vertex="1">
          <mxGeometry x="480" y="900" width="120" height="60" as="geometry" />
        </mxCell>
        <mxCell id="jwFTyUWH3K64vKGYI3gZ-47" value="You are ready to go" style="whiteSpace=wrap;html=1;rounded=0;fillColor=#008a00;fontColor=#ffffff;strokeColor=#005700;" parent="WIyWlLk6GJQsqaUBKTNV-1" vertex="1">
          <mxGeometry x="360" y="1040" width="120" height="60" as="geometry" />
        </mxCell>
        <mxCell id="jwFTyUWH3K64vKGYI3gZ-51" value="Saving Name" style="whiteSpace=wrap;html=1;fillColor=none;" parent="WIyWlLk6GJQsqaUBKTNV-1" vertex="1">
          <mxGeometry x="880" y="160" width="120" height="60" as="geometry" />
        </mxCell>
        <mxCell id="jwFTyUWH3K64vKGYI3gZ-56" value="" style="edgeStyle=orthogonalEdgeStyle;rounded=0;orthogonalLoop=1;jettySize=auto;html=1;" parent="WIyWlLk6GJQsqaUBKTNV-1" source="jwFTyUWH3K64vKGYI3gZ-53" target="jwFTyUWH3K64vKGYI3gZ-55" edge="1">
          <mxGeometry relative="1" as="geometry" />
        </mxCell>
        <mxCell id="jwFTyUWH3K64vKGYI3gZ-53" value="Saving Amount" style="whiteSpace=wrap;html=1;fillColor=none;" parent="WIyWlLk6GJQsqaUBKTNV-1" vertex="1">
          <mxGeometry x="880" y="280" width="120" height="60" as="geometry" />
        </mxCell>
        <mxCell id="jwFTyUWH3K64vKGYI3gZ-72" value="" style="edgeStyle=orthogonalEdgeStyle;rounded=0;orthogonalLoop=1;jettySize=auto;html=1;" parent="WIyWlLk6GJQsqaUBKTNV-1" source="jwFTyUWH3K64vKGYI3gZ-55" target="jwFTyUWH3K64vKGYI3gZ-71" edge="1">
          <mxGeometry relative="1" as="geometry" />
        </mxCell>
        <mxCell id="jwFTyUWH3K64vKGYI3gZ-73" value="Yes" style="edgeLabel;html=1;align=center;verticalAlign=middle;resizable=0;points=[];" parent="jwFTyUWH3K64vKGYI3gZ-72" vertex="1" connectable="0">
          <mxGeometry x="-0.1571" relative="1" as="geometry">
            <mxPoint as="offset" />
          </mxGeometry>
        </mxCell>
        <mxCell id="jwFTyUWH3K64vKGYI3gZ-75" value="" style="edgeStyle=orthogonalEdgeStyle;rounded=0;orthogonalLoop=1;jettySize=auto;html=1;" parent="WIyWlLk6GJQsqaUBKTNV-1" source="jwFTyUWH3K64vKGYI3gZ-55" target="jwFTyUWH3K64vKGYI3gZ-74" edge="1">
          <mxGeometry relative="1" as="geometry" />
        </mxCell>
        <mxCell id="jwFTyUWH3K64vKGYI3gZ-76" value="No" style="edgeLabel;html=1;align=center;verticalAlign=middle;resizable=0;points=[];" parent="jwFTyUWH3K64vKGYI3gZ-75" vertex="1" connectable="0">
          <mxGeometry x="-0.1333" y="-2" relative="1" as="geometry">
            <mxPoint as="offset" />
          </mxGeometry>
        </mxCell>
        <mxCell id="jwFTyUWH3K64vKGYI3gZ-55" value="Is &lt;br&gt;Amount More then They have" style="rhombus;whiteSpace=wrap;html=1;" parent="WIyWlLk6GJQsqaUBKTNV-1" vertex="1">
          <mxGeometry x="900" y="390" width="80" height="80" as="geometry" />
        </mxCell>
        <mxCell id="jwFTyUWH3K64vKGYI3gZ-60" style="edgeStyle=orthogonalEdgeStyle;rounded=0;orthogonalLoop=1;jettySize=auto;html=1;entryX=0.5;entryY=0;entryDx=0;entryDy=0;" parent="WIyWlLk6GJQsqaUBKTNV-1" source="jwFTyUWH3K64vKGYI3gZ-57" target="jwFTyUWH3K64vKGYI3gZ-59" edge="1">
          <mxGeometry relative="1" as="geometry" />
        </mxCell>
        <mxCell id="jwFTyUWH3K64vKGYI3gZ-62" value="" style="edgeStyle=orthogonalEdgeStyle;rounded=0;orthogonalLoop=1;jettySize=auto;html=1;" parent="WIyWlLk6GJQsqaUBKTNV-1" source="jwFTyUWH3K64vKGYI3gZ-57" target="jwFTyUWH3K64vKGYI3gZ-61" edge="1">
          <mxGeometry relative="1" as="geometry" />
        </mxCell>
        <mxCell id="jwFTyUWH3K64vKGYI3gZ-64" style="edgeStyle=orthogonalEdgeStyle;rounded=0;orthogonalLoop=1;jettySize=auto;html=1;entryX=0.5;entryY=0;entryDx=0;entryDy=0;" parent="WIyWlLk6GJQsqaUBKTNV-1" source="jwFTyUWH3K64vKGYI3gZ-57" target="jwFTyUWH3K64vKGYI3gZ-63" edge="1">
          <mxGeometry relative="1" as="geometry" />
        </mxCell>
        <mxCell id="jwFTyUWH3K64vKGYI3gZ-57" value="When&lt;br&gt;do you get&lt;br&gt;Paid" style="rhombus;whiteSpace=wrap;html=1;fillColor=none;" parent="WIyWlLk6GJQsqaUBKTNV-1" vertex="1">
          <mxGeometry x="374" y="410" width="80" height="80" as="geometry" />
        </mxCell>
        <mxCell id="jwFTyUWH3K64vKGYI3gZ-70" style="edgeStyle=orthogonalEdgeStyle;rounded=0;orthogonalLoop=1;jettySize=auto;html=1;entryX=0;entryY=0;entryDx=0;entryDy=0;" parent="WIyWlLk6GJQsqaUBKTNV-1" source="jwFTyUWH3K64vKGYI3gZ-59" target="jwFTyUWH3K64vKGYI3gZ-68" edge="1">
          <mxGeometry relative="1" as="geometry">
            <Array as="points">
              <mxPoint x="260" y="790" />
            </Array>
          </mxGeometry>
        </mxCell>
        <mxCell id="jwFTyUWH3K64vKGYI3gZ-59" value="Daily" style="whiteSpace=wrap;html=1;fillColor=none;" parent="WIyWlLk6GJQsqaUBKTNV-1" vertex="1">
          <mxGeometry x="200" y="525" width="120" height="60" as="geometry" />
        </mxCell>
        <mxCell id="jwFTyUWH3K64vKGYI3gZ-66" value="" style="edgeStyle=orthogonalEdgeStyle;rounded=0;orthogonalLoop=1;jettySize=auto;html=1;" parent="WIyWlLk6GJQsqaUBKTNV-1" source="jwFTyUWH3K64vKGYI3gZ-61" target="jwFTyUWH3K64vKGYI3gZ-65" edge="1">
          <mxGeometry relative="1" as="geometry" />
        </mxCell>
        <mxCell id="jwFTyUWH3K64vKGYI3gZ-61" value="Weekly" style="whiteSpace=wrap;html=1;fillColor=none;" parent="WIyWlLk6GJQsqaUBKTNV-1" vertex="1">
          <mxGeometry x="354" y="525" width="120" height="60" as="geometry" />
        </mxCell>
        <mxCell id="jwFTyUWH3K64vKGYI3gZ-67" style="edgeStyle=orthogonalEdgeStyle;rounded=0;orthogonalLoop=1;jettySize=auto;html=1;entryX=0.5;entryY=0;entryDx=0;entryDy=0;" parent="WIyWlLk6GJQsqaUBKTNV-1" source="jwFTyUWH3K64vKGYI3gZ-63" target="jwFTyUWH3K64vKGYI3gZ-65" edge="1">
          <mxGeometry relative="1" as="geometry">
            <Array as="points">
              <mxPoint x="570" y="610" />
              <mxPoint x="414" y="610" />
            </Array>
          </mxGeometry>
        </mxCell>
        <mxCell id="jwFTyUWH3K64vKGYI3gZ-63" value="Monthly" style="whiteSpace=wrap;html=1;fillColor=none;" parent="WIyWlLk6GJQsqaUBKTNV-1" vertex="1">
          <mxGeometry x="510" y="525" width="120" height="60" as="geometry" />
        </mxCell>
        <mxCell id="jwFTyUWH3K64vKGYI3gZ-69" value="" style="edgeStyle=orthogonalEdgeStyle;rounded=0;orthogonalLoop=1;jettySize=auto;html=1;" parent="WIyWlLk6GJQsqaUBKTNV-1" source="jwFTyUWH3K64vKGYI3gZ-65" target="jwFTyUWH3K64vKGYI3gZ-68" edge="1">
          <mxGeometry relative="1" as="geometry" />
        </mxCell>
        <mxCell id="jwFTyUWH3K64vKGYI3gZ-65" value="Pay Day" style="whiteSpace=wrap;html=1;fillColor=none;" parent="WIyWlLk6GJQsqaUBKTNV-1" vertex="1">
          <mxGeometry x="354" y="665" width="120" height="60" as="geometry" />
        </mxCell>
        <mxCell id="jwFTyUWH3K64vKGYI3gZ-68" value="Are you&lt;br style=&quot;font-size: 8px;&quot;&gt;&lt;span style=&quot;font-size: 8px;&quot;&gt;going to start&lt;/span&gt;&lt;br style=&quot;font-size: 8px;&quot;&gt;&lt;span style=&quot;font-size: 8px;&quot;&gt;from zero&lt;/span&gt;" style="rhombus;whiteSpace=wrap;html=1;fillColor=none;" parent="WIyWlLk6GJQsqaUBKTNV-1" vertex="1">
          <mxGeometry x="374" y="770" width="80" height="80" as="geometry" />
        </mxCell>
        <mxCell id="jwFTyUWH3K64vKGYI3gZ-134" value="" style="edgeStyle=orthogonalEdgeStyle;rounded=0;orthogonalLoop=1;jettySize=auto;html=1;" parent="WIyWlLk6GJQsqaUBKTNV-1" source="jwFTyUWH3K64vKGYI3gZ-71" target="jwFTyUWH3K64vKGYI3gZ-133" edge="1">
          <mxGeometry relative="1" as="geometry" />
        </mxCell>
        <mxCell id="jwFTyUWH3K64vKGYI3gZ-71" value="Sorry Can&#39;t Create&lt;br&gt;Because &lt;br&gt;#Last_Option" style="whiteSpace=wrap;html=1;" parent="WIyWlLk6GJQsqaUBKTNV-1" vertex="1">
          <mxGeometry x="1040" y="400" width="120" height="60" as="geometry" />
        </mxCell>
        <mxCell id="jwFTyUWH3K64vKGYI3gZ-80" value="" style="edgeStyle=orthogonalEdgeStyle;rounded=0;orthogonalLoop=1;jettySize=auto;html=1;" parent="WIyWlLk6GJQsqaUBKTNV-1" source="jwFTyUWH3K64vKGYI3gZ-74" target="jwFTyUWH3K64vKGYI3gZ-79" edge="1">
          <mxGeometry relative="1" as="geometry" />
        </mxCell>
        <mxCell id="jwFTyUWH3K64vKGYI3gZ-74" value="How long this saving&lt;br&gt;account is gonna last" style="whiteSpace=wrap;html=1;" parent="WIyWlLk6GJQsqaUBKTNV-1" vertex="1">
          <mxGeometry x="880" y="560" width="120" height="60" as="geometry" />
        </mxCell>
        <mxCell id="jwFTyUWH3K64vKGYI3gZ-82" value="" style="edgeStyle=orthogonalEdgeStyle;rounded=0;orthogonalLoop=1;jettySize=auto;html=1;" parent="WIyWlLk6GJQsqaUBKTNV-1" source="jwFTyUWH3K64vKGYI3gZ-79" target="jwFTyUWH3K64vKGYI3gZ-81" edge="1">
          <mxGeometry relative="1" as="geometry" />
        </mxCell>
        <mxCell id="jwFTyUWH3K64vKGYI3gZ-83" value="Date" style="edgeLabel;html=1;align=center;verticalAlign=middle;resizable=0;points=[];" parent="jwFTyUWH3K64vKGYI3gZ-82" vertex="1" connectable="0">
          <mxGeometry x="-0.2333" y="-1" relative="1" as="geometry">
            <mxPoint as="offset" />
          </mxGeometry>
        </mxCell>
        <mxCell id="jwFTyUWH3K64vKGYI3gZ-85" value="" style="edgeStyle=orthogonalEdgeStyle;rounded=0;orthogonalLoop=1;jettySize=auto;html=1;" parent="WIyWlLk6GJQsqaUBKTNV-1" source="jwFTyUWH3K64vKGYI3gZ-79" target="jwFTyUWH3K64vKGYI3gZ-84" edge="1">
          <mxGeometry relative="1" as="geometry" />
        </mxCell>
        <mxCell id="jwFTyUWH3K64vKGYI3gZ-86" value="Amount" style="edgeLabel;html=1;align=center;verticalAlign=middle;resizable=0;points=[];" parent="jwFTyUWH3K64vKGYI3gZ-85" vertex="1" connectable="0">
          <mxGeometry x="-0.3314" y="1" relative="1" as="geometry">
            <mxPoint as="offset" />
          </mxGeometry>
        </mxCell>
        <mxCell id="jwFTyUWH3K64vKGYI3gZ-79" value="Amount&lt;br&gt;or&lt;br&gt;Date" style="rhombus;whiteSpace=wrap;html=1;" parent="WIyWlLk6GJQsqaUBKTNV-1" vertex="1">
          <mxGeometry x="1060" y="550" width="80" height="80" as="geometry" />
        </mxCell>
        <mxCell id="jwFTyUWH3K64vKGYI3gZ-94" value="" style="edgeStyle=orthogonalEdgeStyle;rounded=0;orthogonalLoop=1;jettySize=auto;html=1;" parent="WIyWlLk6GJQsqaUBKTNV-1" source="jwFTyUWH3K64vKGYI3gZ-81" target="jwFTyUWH3K64vKGYI3gZ-93" edge="1">
          <mxGeometry relative="1" as="geometry" />
        </mxCell>
        <mxCell id="jwFTyUWH3K64vKGYI3gZ-81" value="Insert the date please" style="whiteSpace=wrap;html=1;" parent="WIyWlLk6GJQsqaUBKTNV-1" vertex="1">
          <mxGeometry x="1200" y="560" width="120" height="60" as="geometry" />
        </mxCell>
        <mxCell id="jwFTyUWH3K64vKGYI3gZ-92" value="" style="edgeStyle=orthogonalEdgeStyle;rounded=0;orthogonalLoop=1;jettySize=auto;html=1;" parent="WIyWlLk6GJQsqaUBKTNV-1" source="jwFTyUWH3K64vKGYI3gZ-84" target="jwFTyUWH3K64vKGYI3gZ-91" edge="1">
          <mxGeometry relative="1" as="geometry" />
        </mxCell>
        <mxCell id="jwFTyUWH3K64vKGYI3gZ-84" value="Amount Please" style="whiteSpace=wrap;html=1;" parent="WIyWlLk6GJQsqaUBKTNV-1" vertex="1">
          <mxGeometry x="1040" y="700" width="120" height="60" as="geometry" />
        </mxCell>
        <mxCell id="jwFTyUWH3K64vKGYI3gZ-130" style="edgeStyle=orthogonalEdgeStyle;rounded=0;orthogonalLoop=1;jettySize=auto;html=1;entryX=0.5;entryY=0;entryDx=0;entryDy=0;" parent="WIyWlLk6GJQsqaUBKTNV-1" source="jwFTyUWH3K64vKGYI3gZ-91" target="jwFTyUWH3K64vKGYI3gZ-128" edge="1">
          <mxGeometry relative="1" as="geometry" />
        </mxCell>
        <mxCell id="jwFTyUWH3K64vKGYI3gZ-91" value="&amp;nbsp; &amp;nbsp; &amp;nbsp; Accourding to this you will have this saving account &lt;br&gt;up until #CalcDate&amp;nbsp; &amp;nbsp; &amp;nbsp;" style="shape=parallelogram;perimeter=parallelogramPerimeter;whiteSpace=wrap;html=1;fixedSize=1;" parent="WIyWlLk6GJQsqaUBKTNV-1" vertex="1">
          <mxGeometry x="1190" y="700" width="120" height="60" as="geometry" />
        </mxCell>
        <mxCell id="jwFTyUWH3K64vKGYI3gZ-129" style="edgeStyle=orthogonalEdgeStyle;rounded=0;orthogonalLoop=1;jettySize=auto;html=1;entryX=0.5;entryY=0;entryDx=0;entryDy=0;" parent="WIyWlLk6GJQsqaUBKTNV-1" source="jwFTyUWH3K64vKGYI3gZ-93" target="jwFTyUWH3K64vKGYI3gZ-128" edge="1">
          <mxGeometry relative="1" as="geometry" />
        </mxCell>
        <mxCell id="jwFTyUWH3K64vKGYI3gZ-93" value="&amp;nbsp; &amp;nbsp; &amp;nbsp; Accourding to this you will have this saving account&lt;br&gt;of #CalcAmount&amp;nbsp; &amp;nbsp; &amp;nbsp;" style="shape=parallelogram;perimeter=parallelogramPerimeter;whiteSpace=wrap;html=1;fixedSize=1;" parent="WIyWlLk6GJQsqaUBKTNV-1" vertex="1">
          <mxGeometry x="1360" y="560" width="120" height="60" as="geometry" />
        </mxCell>
        <mxCell id="jwFTyUWH3K64vKGYI3gZ-119" value="" style="edgeStyle=orthogonalEdgeStyle;rounded=0;orthogonalLoop=1;jettySize=auto;html=1;exitX=0;exitY=0.5;exitDx=0;exitDy=0;" parent="WIyWlLk6GJQsqaUBKTNV-1" source="jwFTyUWH3K64vKGYI3gZ-128" target="jwFTyUWH3K64vKGYI3gZ-124" edge="1">
          <mxGeometry relative="1" as="geometry">
            <mxPoint x="1370" y="795" as="sourcePoint" />
          </mxGeometry>
        </mxCell>
        <mxCell id="jwFTyUWH3K64vKGYI3gZ-120" value="Yes" style="edgeLabel;html=1;align=center;verticalAlign=middle;resizable=0;points=[];" parent="jwFTyUWH3K64vKGYI3gZ-119" vertex="1" connectable="0">
          <mxGeometry x="-0.2563" relative="1" as="geometry">
            <mxPoint as="offset" />
          </mxGeometry>
        </mxCell>
        <mxCell id="jwFTyUWH3K64vKGYI3gZ-121" value="" style="edgeStyle=orthogonalEdgeStyle;rounded=0;orthogonalLoop=1;jettySize=auto;html=1;exitX=1;exitY=0.5;exitDx=0;exitDy=0;" parent="WIyWlLk6GJQsqaUBKTNV-1" source="jwFTyUWH3K64vKGYI3gZ-128" target="jwFTyUWH3K64vKGYI3gZ-126" edge="1">
          <mxGeometry relative="1" as="geometry">
            <mxPoint x="1470" y="795" as="sourcePoint" />
          </mxGeometry>
        </mxCell>
        <mxCell id="jwFTyUWH3K64vKGYI3gZ-122" value="No" style="edgeLabel;html=1;align=center;verticalAlign=middle;resizable=0;points=[];" parent="jwFTyUWH3K64vKGYI3gZ-121" vertex="1" connectable="0">
          <mxGeometry x="-0.18" y="1" relative="1" as="geometry">
            <mxPoint as="offset" />
          </mxGeometry>
        </mxCell>
        <mxCell id="jwFTyUWH3K64vKGYI3gZ-123" style="edgeStyle=orthogonalEdgeStyle;rounded=0;orthogonalLoop=1;jettySize=auto;html=1;entryX=0.5;entryY=0;entryDx=0;entryDy=0;" parent="WIyWlLk6GJQsqaUBKTNV-1" source="jwFTyUWH3K64vKGYI3gZ-124" target="jwFTyUWH3K64vKGYI3gZ-127" edge="1">
          <mxGeometry relative="1" as="geometry" />
        </mxCell>
        <mxCell id="jwFTyUWH3K64vKGYI3gZ-124" value="Start from Zero" style="whiteSpace=wrap;html=1;rounded=0;" parent="WIyWlLk6GJQsqaUBKTNV-1" vertex="1">
          <mxGeometry x="1246" y="880" width="120" height="60" as="geometry" />
        </mxCell>
        <mxCell id="jwFTyUWH3K64vKGYI3gZ-125" value="" style="edgeStyle=orthogonalEdgeStyle;rounded=0;orthogonalLoop=1;jettySize=auto;html=1;" parent="WIyWlLk6GJQsqaUBKTNV-1" source="jwFTyUWH3K64vKGYI3gZ-126" target="jwFTyUWH3K64vKGYI3gZ-127" edge="1">
          <mxGeometry relative="1" as="geometry" />
        </mxCell>
        <mxCell id="jwFTyUWH3K64vKGYI3gZ-126" value="Insert the amount you&lt;br&gt;Already have" style="whiteSpace=wrap;html=1;rounded=0;" parent="WIyWlLk6GJQsqaUBKTNV-1" vertex="1">
          <mxGeometry x="1486" y="880" width="120" height="60" as="geometry" />
        </mxCell>
        <mxCell id="jwFTyUWH3K64vKGYI3gZ-127" value="You are ready to go" style="whiteSpace=wrap;html=1;rounded=0;fillColor=#008a00;fontColor=#ffffff;strokeColor=#005700;" parent="WIyWlLk6GJQsqaUBKTNV-1" vertex="1">
          <mxGeometry x="1366" y="1020" width="120" height="60" as="geometry" />
        </mxCell>
        <mxCell id="jwFTyUWH3K64vKGYI3gZ-128" value="Are you&lt;br style=&quot;font-size: 8px;&quot;&gt;&lt;span style=&quot;font-size: 8px;&quot;&gt;going to start&lt;/span&gt;&lt;br style=&quot;font-size: 8px;&quot;&gt;&lt;span style=&quot;font-size: 8px;&quot;&gt;from zero&lt;/span&gt;" style="rhombus;whiteSpace=wrap;html=1;" parent="WIyWlLk6GJQsqaUBKTNV-1" vertex="1">
          <mxGeometry x="1380" y="750" width="80" height="80" as="geometry" />
        </mxCell>
        <mxCell id="jwFTyUWH3K64vKGYI3gZ-133" value="Back to Dashboard" style="ellipse;whiteSpace=wrap;html=1;fillColor=#a20025;fontColor=#ffffff;strokeColor=#6F0000;" parent="WIyWlLk6GJQsqaUBKTNV-1" vertex="1">
          <mxGeometry x="1220" y="390" width="120" height="80" as="geometry" />
        </mxCell>
        <mxCell id="jwFTyUWH3K64vKGYI3gZ-135" value="Loan Name" style="whiteSpace=wrap;html=1;" parent="WIyWlLk6GJQsqaUBKTNV-1" vertex="1">
          <mxGeometry x="1700" y="160" width="120" height="60" as="geometry" />
        </mxCell>
        <mxCell id="jwFTyUWH3K64vKGYI3gZ-142" value="" style="edgeStyle=orthogonalEdgeStyle;rounded=0;orthogonalLoop=1;jettySize=auto;html=1;" parent="WIyWlLk6GJQsqaUBKTNV-1" source="jwFTyUWH3K64vKGYI3gZ-137" target="jwFTyUWH3K64vKGYI3gZ-141" edge="1">
          <mxGeometry relative="1" as="geometry" />
        </mxCell>
        <mxCell id="jwFTyUWH3K64vKGYI3gZ-137" value="Loan Amount" style="whiteSpace=wrap;html=1;" parent="WIyWlLk6GJQsqaUBKTNV-1" vertex="1">
          <mxGeometry x="1700" y="280" width="120" height="60" as="geometry" />
        </mxCell>
        <mxCell id="jwFTyUWH3K64vKGYI3gZ-144" value="" style="edgeStyle=orthogonalEdgeStyle;rounded=0;orthogonalLoop=1;jettySize=auto;html=1;entryX=0;entryY=0.5;entryDx=0;entryDy=0;" parent="WIyWlLk6GJQsqaUBKTNV-1" source="jwFTyUWH3K64vKGYI3gZ-141" target="jwFTyUWH3K64vKGYI3gZ-166" edge="1">
          <mxGeometry relative="1" as="geometry">
            <mxPoint x="1860" y="430.0000000000001" as="targetPoint" />
          </mxGeometry>
        </mxCell>
        <mxCell id="jwFTyUWH3K64vKGYI3gZ-145" value="Yes" style="edgeLabel;html=1;align=center;verticalAlign=middle;resizable=0;points=[];" parent="jwFTyUWH3K64vKGYI3gZ-144" vertex="1" connectable="0">
          <mxGeometry x="-0.2349" relative="1" as="geometry">
            <mxPoint as="offset" />
          </mxGeometry>
        </mxCell>
        <mxCell id="jwFTyUWH3K64vKGYI3gZ-149" value="" style="edgeStyle=orthogonalEdgeStyle;rounded=0;orthogonalLoop=1;jettySize=auto;html=1;entryX=0.5;entryY=0;entryDx=0;entryDy=0;" parent="WIyWlLk6GJQsqaUBKTNV-1" source="jwFTyUWH3K64vKGYI3gZ-141" target="jwFTyUWH3K64vKGYI3gZ-151" edge="1">
          <mxGeometry relative="1" as="geometry">
            <mxPoint x="1760" y="560" as="targetPoint" />
          </mxGeometry>
        </mxCell>
        <mxCell id="jwFTyUWH3K64vKGYI3gZ-150" value="No" style="edgeLabel;html=1;align=center;verticalAlign=middle;resizable=0;points=[];" parent="jwFTyUWH3K64vKGYI3gZ-149" vertex="1" connectable="0">
          <mxGeometry x="-0.1979" relative="1" as="geometry">
            <mxPoint as="offset" />
          </mxGeometry>
        </mxCell>
        <mxCell id="jwFTyUWH3K64vKGYI3gZ-141" value="&lt;font style=&quot;font-size: 10px;&quot;&gt;Is Loan &lt;br&gt;more then amount left &lt;br&gt;in bank&lt;/font&gt;" style="rhombus;whiteSpace=wrap;html=1;" parent="WIyWlLk6GJQsqaUBKTNV-1" vertex="1">
          <mxGeometry x="1720" y="390" width="80" height="80" as="geometry" />
        </mxCell>
        <mxCell id="jwFTyUWH3K64vKGYI3gZ-146" value="Back to Dashboard" style="ellipse;whiteSpace=wrap;html=1;fillColor=#a20025;fontColor=#ffffff;strokeColor=#6F0000;" parent="WIyWlLk6GJQsqaUBKTNV-1" vertex="1">
          <mxGeometry x="2090" y="390" width="120" height="80" as="geometry" />
        </mxCell>
        <mxCell id="jwFTyUWH3K64vKGYI3gZ-153" value="" style="edgeStyle=orthogonalEdgeStyle;rounded=0;orthogonalLoop=1;jettySize=auto;html=1;" parent="WIyWlLk6GJQsqaUBKTNV-1" source="jwFTyUWH3K64vKGYI3gZ-151" target="jwFTyUWH3K64vKGYI3gZ-152" edge="1">
          <mxGeometry relative="1" as="geometry" />
        </mxCell>
        <mxCell id="jwFTyUWH3K64vKGYI3gZ-155" value="" style="edgeStyle=orthogonalEdgeStyle;rounded=0;orthogonalLoop=1;jettySize=auto;html=1;" parent="WIyWlLk6GJQsqaUBKTNV-1" source="jwFTyUWH3K64vKGYI3gZ-151" target="jwFTyUWH3K64vKGYI3gZ-154" edge="1">
          <mxGeometry relative="1" as="geometry">
            <Array as="points">
              <mxPoint x="1760" y="700" />
            </Array>
          </mxGeometry>
        </mxCell>
        <mxCell id="jwFTyUWH3K64vKGYI3gZ-157" value="" style="edgeStyle=orthogonalEdgeStyle;rounded=0;orthogonalLoop=1;jettySize=auto;html=1;" parent="WIyWlLk6GJQsqaUBKTNV-1" source="jwFTyUWH3K64vKGYI3gZ-151" target="jwFTyUWH3K64vKGYI3gZ-156" edge="1">
          <mxGeometry relative="1" as="geometry">
            <Array as="points">
              <mxPoint x="1760" y="810" />
            </Array>
          </mxGeometry>
        </mxCell>
        <mxCell id="jwFTyUWH3K64vKGYI3gZ-151" value="When &lt;br&gt;do you have to pay" style="rhombus;whiteSpace=wrap;html=1;" parent="WIyWlLk6GJQsqaUBKTNV-1" vertex="1">
          <mxGeometry x="1720" y="560" width="80" height="80" as="geometry" />
        </mxCell>
        <mxCell id="jwFTyUWH3K64vKGYI3gZ-172" style="edgeStyle=orthogonalEdgeStyle;rounded=0;orthogonalLoop=1;jettySize=auto;html=1;fillColor=#6a00ff;strokeColor=#3700CC;" parent="WIyWlLk6GJQsqaUBKTNV-1" source="jwFTyUWH3K64vKGYI3gZ-152" target="jwFTyUWH3K64vKGYI3gZ-169" edge="1">
          <mxGeometry relative="1" as="geometry" />
        </mxCell>
        <mxCell id="jwFTyUWH3K64vKGYI3gZ-152" value="Daily" style="whiteSpace=wrap;html=1;" parent="WIyWlLk6GJQsqaUBKTNV-1" vertex="1">
          <mxGeometry x="1860" y="570" width="120" height="60" as="geometry" />
        </mxCell>
        <mxCell id="jwFTyUWH3K64vKGYI3gZ-170" value="" style="edgeStyle=orthogonalEdgeStyle;rounded=0;orthogonalLoop=1;jettySize=auto;html=1;fillColor=#6a00ff;strokeColor=#3700CC;" parent="WIyWlLk6GJQsqaUBKTNV-1" source="jwFTyUWH3K64vKGYI3gZ-154" target="jwFTyUWH3K64vKGYI3gZ-169" edge="1">
          <mxGeometry relative="1" as="geometry" />
        </mxCell>
        <mxCell id="jwFTyUWH3K64vKGYI3gZ-154" value="Weekly" style="whiteSpace=wrap;html=1;" parent="WIyWlLk6GJQsqaUBKTNV-1" vertex="1">
          <mxGeometry x="1860" y="670" width="120" height="60" as="geometry" />
        </mxCell>
        <mxCell id="jwFTyUWH3K64vKGYI3gZ-171" style="edgeStyle=orthogonalEdgeStyle;rounded=0;orthogonalLoop=1;jettySize=auto;html=1;" parent="WIyWlLk6GJQsqaUBKTNV-1" source="jwFTyUWH3K64vKGYI3gZ-156" target="jwFTyUWH3K64vKGYI3gZ-169" edge="1">
          <mxGeometry relative="1" as="geometry" />
        </mxCell>
        <mxCell id="jwFTyUWH3K64vKGYI3gZ-156" value="Monthly" style="whiteSpace=wrap;html=1;" parent="WIyWlLk6GJQsqaUBKTNV-1" vertex="1">
          <mxGeometry x="1860" y="780" width="120" height="60" as="geometry" />
        </mxCell>
        <mxCell id="jwFTyUWH3K64vKGYI3gZ-168" value="" style="edgeStyle=orthogonalEdgeStyle;rounded=0;orthogonalLoop=1;jettySize=auto;html=1;" parent="WIyWlLk6GJQsqaUBKTNV-1" source="jwFTyUWH3K64vKGYI3gZ-166" target="jwFTyUWH3K64vKGYI3gZ-146" edge="1">
          <mxGeometry relative="1" as="geometry" />
        </mxCell>
        <mxCell id="jwFTyUWH3K64vKGYI3gZ-166" value="&lt;span style=&quot;color: rgb(240, 240, 240); font-family: Helvetica; font-size: 12px; font-style: normal; font-variant-ligatures: normal; font-variant-caps: normal; font-weight: 400; letter-spacing: normal; orphans: 2; text-align: center; text-indent: 0px; text-transform: none; widows: 2; word-spacing: 0px; -webkit-text-stroke-width: 0px; background-color: rgb(27, 29, 30); text-decoration-thickness: initial; text-decoration-style: initial; text-decoration-color: initial; float: none; display: inline !important;&quot;&gt;Sorry how can you pay &lt;br&gt;Loan when your income &lt;br&gt;is less then the loan itself&lt;/span&gt;" style="shape=parallelogram;perimeter=parallelogramPerimeter;whiteSpace=wrap;html=1;fixedSize=1;" parent="WIyWlLk6GJQsqaUBKTNV-1" vertex="1">
          <mxGeometry x="1860" y="400" width="170" height="60" as="geometry" />
        </mxCell>
        <mxCell id="jwFTyUWH3K64vKGYI3gZ-174" value="" style="edgeStyle=orthogonalEdgeStyle;rounded=0;orthogonalLoop=1;jettySize=auto;html=1;dashed=1;fillColor=#6a00ff;strokeColor=#3700CC;" parent="WIyWlLk6GJQsqaUBKTNV-1" source="jwFTyUWH3K64vKGYI3gZ-169" target="jwFTyUWH3K64vKGYI3gZ-175" edge="1">
          <mxGeometry relative="1" as="geometry">
            <mxPoint x="2268" y="700" as="targetPoint" />
          </mxGeometry>
        </mxCell>
        <mxCell id="jwFTyUWH3K64vKGYI3gZ-169" value="&lt;span style=&quot;color: rgb(240, 240, 240); font-family: Helvetica; font-size: 12px; font-style: normal; font-variant-ligatures: normal; font-variant-caps: normal; font-weight: 400; letter-spacing: normal; orphans: 2; text-align: center; text-indent: 0px; text-transform: none; widows: 2; word-spacing: 0px; -webkit-text-stroke-width: 0px; background-color: rgb(27, 29, 30); text-decoration-thickness: initial; text-decoration-style: initial; text-decoration-color: initial; float: none; display: inline !important;&quot;&gt;How much are &lt;br&gt;you going to pay #Last_Option&lt;/span&gt;" style="shape=parallelogram;perimeter=parallelogramPerimeter;whiteSpace=wrap;html=1;fixedSize=1;" parent="WIyWlLk6GJQsqaUBKTNV-1" vertex="1">
          <mxGeometry x="2068" y="670" width="120" height="60" as="geometry" />
        </mxCell>
        <mxCell id="jwFTyUWH3K64vKGYI3gZ-177" value="" style="edgeStyle=orthogonalEdgeStyle;rounded=0;orthogonalLoop=1;jettySize=auto;html=1;" parent="WIyWlLk6GJQsqaUBKTNV-1" source="jwFTyUWH3K64vKGYI3gZ-175" target="jwFTyUWH3K64vKGYI3gZ-176" edge="1">
          <mxGeometry relative="1" as="geometry" />
        </mxCell>
        <mxCell id="jwFTyUWH3K64vKGYI3gZ-178" value="Yes" style="edgeLabel;html=1;align=center;verticalAlign=middle;resizable=0;points=[];" parent="jwFTyUWH3K64vKGYI3gZ-177" vertex="1" connectable="0">
          <mxGeometry x="-0.2056" y="-2" relative="1" as="geometry">
            <mxPoint as="offset" />
          </mxGeometry>
        </mxCell>
        <mxCell id="jwFTyUWH3K64vKGYI3gZ-190" value="" style="edgeStyle=orthogonalEdgeStyle;rounded=0;orthogonalLoop=1;jettySize=auto;html=1;" parent="WIyWlLk6GJQsqaUBKTNV-1" source="jwFTyUWH3K64vKGYI3gZ-175" target="jwFTyUWH3K64vKGYI3gZ-189" edge="1">
          <mxGeometry relative="1" as="geometry" />
        </mxCell>
        <mxCell id="jwFTyUWH3K64vKGYI3gZ-191" value="No" style="edgeLabel;html=1;align=center;verticalAlign=middle;resizable=0;points=[];" parent="jwFTyUWH3K64vKGYI3gZ-190" vertex="1" connectable="0">
          <mxGeometry x="-0.0324" y="2" relative="1" as="geometry">
            <mxPoint as="offset" />
          </mxGeometry>
        </mxCell>
        <mxCell id="jwFTyUWH3K64vKGYI3gZ-175" value="&lt;span style=&quot;color: rgb(240, 240, 240); font-family: Helvetica; font-size: 12px; font-style: normal; font-variant-ligatures: normal; font-variant-caps: normal; font-weight: 400; letter-spacing: normal; orphans: 2; text-align: center; text-indent: 0px; text-transform: none; widows: 2; word-spacing: 0px; -webkit-text-stroke-width: 0px; background-color: rgb(27, 29, 30); text-decoration-thickness: initial; text-decoration-style: initial; text-decoration-color: initial; float: none; display: inline !important;&quot;&gt;Is &lt;br&gt;Amount getting more then he &lt;br&gt;earns&lt;/span&gt;" style="rhombus;whiteSpace=wrap;html=1;" parent="WIyWlLk6GJQsqaUBKTNV-1" vertex="1">
          <mxGeometry x="2240" y="660" width="80" height="80" as="geometry" />
        </mxCell>
        <mxCell id="jwFTyUWH3K64vKGYI3gZ-181" value="" style="edgeStyle=orthogonalEdgeStyle;rounded=0;orthogonalLoop=1;jettySize=auto;html=1;" parent="WIyWlLk6GJQsqaUBKTNV-1" source="jwFTyUWH3K64vKGYI3gZ-176" target="jwFTyUWH3K64vKGYI3gZ-180" edge="1">
          <mxGeometry relative="1" as="geometry" />
        </mxCell>
        <mxCell id="jwFTyUWH3K64vKGYI3gZ-176" value="Sorry Your #Second_Last_Option&lt;br&gt;is not working with you current income" style="whiteSpace=wrap;html=1;" parent="WIyWlLk6GJQsqaUBKTNV-1" vertex="1">
          <mxGeometry x="2340" y="510" width="120" height="60" as="geometry" />
        </mxCell>
        <mxCell id="jwFTyUWH3K64vKGYI3gZ-182" style="edgeStyle=orthogonalEdgeStyle;rounded=0;orthogonalLoop=1;jettySize=auto;html=1;entryX=0.75;entryY=0;entryDx=0;entryDy=0;" parent="WIyWlLk6GJQsqaUBKTNV-1" source="jwFTyUWH3K64vKGYI3gZ-180" target="jwFTyUWH3K64vKGYI3gZ-169" edge="1">
          <mxGeometry relative="1" as="geometry" />
        </mxCell>
        <mxCell id="jwFTyUWH3K64vKGYI3gZ-183" value="Amount" style="edgeLabel;html=1;align=center;verticalAlign=middle;resizable=0;points=[];" parent="jwFTyUWH3K64vKGYI3gZ-182" vertex="1" connectable="0">
          <mxGeometry x="0.2237" y="-1" relative="1" as="geometry">
            <mxPoint as="offset" />
          </mxGeometry>
        </mxCell>
        <mxCell id="jwFTyUWH3K64vKGYI3gZ-184" style="edgeStyle=orthogonalEdgeStyle;rounded=0;orthogonalLoop=1;jettySize=auto;html=1;entryX=0.5;entryY=0;entryDx=0;entryDy=0;" parent="WIyWlLk6GJQsqaUBKTNV-1" source="jwFTyUWH3K64vKGYI3gZ-180" target="jwFTyUWH3K64vKGYI3gZ-151" edge="1">
          <mxGeometry relative="1" as="geometry" />
        </mxCell>
        <mxCell id="jwFTyUWH3K64vKGYI3gZ-185" value="Pay option" style="edgeLabel;html=1;align=center;verticalAlign=middle;resizable=0;points=[];" parent="jwFTyUWH3K64vKGYI3gZ-184" vertex="1" connectable="0">
          <mxGeometry x="0.1217" y="1" relative="1" as="geometry">
            <mxPoint as="offset" />
          </mxGeometry>
        </mxCell>
        <mxCell id="jwFTyUWH3K64vKGYI3gZ-180" value="Want &lt;br&gt;to change amount or pay option" style="rhombus;whiteSpace=wrap;html=1;" parent="WIyWlLk6GJQsqaUBKTNV-1" vertex="1">
          <mxGeometry x="2200" y="500" width="80" height="80" as="geometry" />
        </mxCell>
        <mxCell id="jwFTyUWH3K64vKGYI3gZ-193" value="" style="edgeStyle=orthogonalEdgeStyle;rounded=0;orthogonalLoop=1;jettySize=auto;html=1;" parent="WIyWlLk6GJQsqaUBKTNV-1" source="jwFTyUWH3K64vKGYI3gZ-189" target="jwFTyUWH3K64vKGYI3gZ-192" edge="1">
          <mxGeometry relative="1" as="geometry" />
        </mxCell>
        <mxCell id="jwFTyUWH3K64vKGYI3gZ-189" value="Accourding to this you will be able to finish this loan at this #CalcDate" style="shape=parallelogram;perimeter=parallelogramPerimeter;whiteSpace=wrap;html=1;fixedSize=1;" parent="WIyWlLk6GJQsqaUBKTNV-1" vertex="1">
          <mxGeometry x="2220" y="790" width="120" height="60" as="geometry" />
        </mxCell>
        <mxCell id="jwFTyUWH3K64vKGYI3gZ-192" value="You are all done" style="whiteSpace=wrap;html=1;fillColor=#008a00;fontColor=#ffffff;strokeColor=#005700;" parent="WIyWlLk6GJQsqaUBKTNV-1" vertex="1">
          <mxGeometry x="2220" y="930" width="120" height="60" as="geometry" />
        </mxCell>
        <mxCell id="jwFTyUWH3K64vKGYI3gZ-221" value="" style="edgeStyle=orthogonalEdgeStyle;rounded=0;orthogonalLoop=1;jettySize=auto;html=1;" parent="WIyWlLk6GJQsqaUBKTNV-1" source="jwFTyUWH3K64vKGYI3gZ-194" target="jwFTyUWH3K64vKGYI3gZ-220" edge="1">
          <mxGeometry relative="1" as="geometry" />
        </mxCell>
        <mxCell id="jwFTyUWH3K64vKGYI3gZ-194" value="Please choose a category" style="whiteSpace=wrap;html=1;fillColor=none;" parent="WIyWlLk6GJQsqaUBKTNV-1" vertex="1">
          <mxGeometry x="2760" y="40" width="120" height="60" as="geometry" />
        </mxCell>
        <mxCell id="jwFTyUWH3K64vKGYI3gZ-196" value="&lt;span style=&quot;color: rgb(240, 240, 240); font-family: Helvetica; font-size: 12px; font-style: normal; font-variant-ligatures: normal; font-variant-caps: normal; font-weight: 400; letter-spacing: normal; orphans: 2; text-align: center; text-indent: 0px; text-transform: none; widows: 2; word-spacing: 0px; -webkit-text-stroke-width: 0px; background-color: rgb(27, 29, 30); text-decoration-thickness: initial; text-decoration-style: initial; text-decoration-color: initial; float: none; display: inline !important;&quot;&gt;Is &lt;br&gt;Amount getting more then he &lt;br&gt;earns&lt;/span&gt;" style="rhombus;whiteSpace=wrap;html=1;fillColor=none;" parent="WIyWlLk6GJQsqaUBKTNV-1" vertex="1">
          <mxGeometry x="2240" y="660" width="80" height="80" as="geometry" />
        </mxCell>
        <mxCell id="jwFTyUWH3K64vKGYI3gZ-197" value="Want &lt;br&gt;to change amount or pay option" style="rhombus;whiteSpace=wrap;html=1;fillColor=none;" parent="WIyWlLk6GJQsqaUBKTNV-1" vertex="1">
          <mxGeometry x="2200" y="500" width="80" height="80" as="geometry" />
        </mxCell>
        <mxCell id="jwFTyUWH3K64vKGYI3gZ-198" value="Sorry Your #Second_Last_Option&lt;br&gt;is not working with you current income" style="whiteSpace=wrap;html=1;fillColor=none;" parent="WIyWlLk6GJQsqaUBKTNV-1" vertex="1">
          <mxGeometry x="2340" y="510" width="120" height="60" as="geometry" />
        </mxCell>
        <mxCell id="jwFTyUWH3K64vKGYI3gZ-199" value="Accourding to this you will be able to finish this loan at this #CalcDate" style="shape=parallelogram;perimeter=parallelogramPerimeter;whiteSpace=wrap;html=1;fixedSize=1;fillColor=none;" parent="WIyWlLk6GJQsqaUBKTNV-1" vertex="1">
          <mxGeometry x="2220" y="790" width="120" height="60" as="geometry" />
        </mxCell>
        <mxCell id="jwFTyUWH3K64vKGYI3gZ-200" value="&lt;span style=&quot;color: rgb(240, 240, 240); font-family: Helvetica; font-size: 12px; font-style: normal; font-variant-ligatures: normal; font-variant-caps: normal; font-weight: 400; letter-spacing: normal; orphans: 2; text-align: center; text-indent: 0px; text-transform: none; widows: 2; word-spacing: 0px; -webkit-text-stroke-width: 0px; background-color: rgb(27, 29, 30); text-decoration-thickness: initial; text-decoration-style: initial; text-decoration-color: initial; float: none; display: inline !important;&quot;&gt;How much are &lt;br&gt;you going to pay #Last_Option&lt;/span&gt;" style="shape=parallelogram;perimeter=parallelogramPerimeter;whiteSpace=wrap;html=1;fixedSize=1;fillColor=none;" parent="WIyWlLk6GJQsqaUBKTNV-1" vertex="1">
          <mxGeometry x="2068" y="670" width="120" height="60" as="geometry" />
        </mxCell>
        <mxCell id="jwFTyUWH3K64vKGYI3gZ-201" value="Monthly" style="whiteSpace=wrap;html=1;fillColor=none;" parent="WIyWlLk6GJQsqaUBKTNV-1" vertex="1">
          <mxGeometry x="1860" y="780" width="120" height="60" as="geometry" />
        </mxCell>
        <mxCell id="jwFTyUWH3K64vKGYI3gZ-202" value="Weekly" style="whiteSpace=wrap;html=1;fillColor=none;" parent="WIyWlLk6GJQsqaUBKTNV-1" vertex="1">
          <mxGeometry x="1860" y="670" width="120" height="60" as="geometry" />
        </mxCell>
        <mxCell id="jwFTyUWH3K64vKGYI3gZ-203" value="Daily" style="whiteSpace=wrap;html=1;fillColor=none;" parent="WIyWlLk6GJQsqaUBKTNV-1" vertex="1">
          <mxGeometry x="1860" y="570" width="120" height="60" as="geometry" />
        </mxCell>
        <mxCell id="jwFTyUWH3K64vKGYI3gZ-204" value="When &lt;br&gt;do you have to pay" style="rhombus;whiteSpace=wrap;html=1;fillColor=none;" parent="WIyWlLk6GJQsqaUBKTNV-1" vertex="1">
          <mxGeometry x="1720" y="560" width="80" height="80" as="geometry" />
        </mxCell>
        <mxCell id="jwFTyUWH3K64vKGYI3gZ-205" value="&lt;font style=&quot;font-size: 10px;&quot;&gt;Is Loan &lt;br&gt;more then amount left &lt;br&gt;in bank&lt;/font&gt;" style="rhombus;whiteSpace=wrap;html=1;fillColor=none;" parent="WIyWlLk6GJQsqaUBKTNV-1" vertex="1">
          <mxGeometry x="1720" y="390" width="80" height="80" as="geometry" />
        </mxCell>
        <mxCell id="jwFTyUWH3K64vKGYI3gZ-206" value="&lt;span style=&quot;color: rgb(240, 240, 240); font-family: Helvetica; font-size: 12px; font-style: normal; font-variant-ligatures: normal; font-variant-caps: normal; font-weight: 400; letter-spacing: normal; orphans: 2; text-align: center; text-indent: 0px; text-transform: none; widows: 2; word-spacing: 0px; -webkit-text-stroke-width: 0px; background-color: rgb(27, 29, 30); text-decoration-thickness: initial; text-decoration-style: initial; text-decoration-color: initial; float: none; display: inline !important;&quot;&gt;Sorry how can you pay &lt;br&gt;Loan when your income &lt;br&gt;is less then the loan itself&lt;/span&gt;" style="shape=parallelogram;perimeter=parallelogramPerimeter;whiteSpace=wrap;html=1;fixedSize=1;fillColor=none;" parent="WIyWlLk6GJQsqaUBKTNV-1" vertex="1">
          <mxGeometry x="1860" y="400" width="170" height="60" as="geometry" />
        </mxCell>
        <mxCell id="jwFTyUWH3K64vKGYI3gZ-207" value="Loan Amount" style="whiteSpace=wrap;html=1;fillColor=none;" parent="WIyWlLk6GJQsqaUBKTNV-1" vertex="1">
          <mxGeometry x="1700" y="280" width="120" height="60" as="geometry" />
        </mxCell>
        <mxCell id="z_kE8j-IcZDau5Q-zSbC-3" value="" style="edgeStyle=orthogonalEdgeStyle;rounded=0;orthogonalLoop=1;jettySize=auto;html=1;" edge="1" parent="WIyWlLk6GJQsqaUBKTNV-1" source="jwFTyUWH3K64vKGYI3gZ-208" target="z_kE8j-IcZDau5Q-zSbC-2">
          <mxGeometry relative="1" as="geometry" />
        </mxCell>
        <mxCell id="jwFTyUWH3K64vKGYI3gZ-208" value="Loan Name" style="whiteSpace=wrap;html=1;fillColor=none;" parent="WIyWlLk6GJQsqaUBKTNV-1" vertex="1">
          <mxGeometry x="1700" y="160" width="120" height="60" as="geometry" />
        </mxCell>
        <mxCell id="jwFTyUWH3K64vKGYI3gZ-209" value="&amp;nbsp; &amp;nbsp; &amp;nbsp; Accourding to this you will have this saving account&lt;br&gt;of #CalcAmount&amp;nbsp; &amp;nbsp; &amp;nbsp;" style="shape=parallelogram;perimeter=parallelogramPerimeter;whiteSpace=wrap;html=1;fixedSize=1;fillColor=none;" parent="WIyWlLk6GJQsqaUBKTNV-1" vertex="1">
          <mxGeometry x="1360" y="560" width="120" height="60" as="geometry" />
        </mxCell>
        <mxCell id="jwFTyUWH3K64vKGYI3gZ-210" value="Are you&lt;br style=&quot;font-size: 8px;&quot;&gt;&lt;span style=&quot;font-size: 8px;&quot;&gt;going to start&lt;/span&gt;&lt;br style=&quot;font-size: 8px;&quot;&gt;&lt;span style=&quot;font-size: 8px;&quot;&gt;from zero&lt;/span&gt;" style="rhombus;whiteSpace=wrap;html=1;fillColor=none;" parent="WIyWlLk6GJQsqaUBKTNV-1" vertex="1">
          <mxGeometry x="1380" y="750" width="80" height="80" as="geometry" />
        </mxCell>
        <mxCell id="jwFTyUWH3K64vKGYI3gZ-211" value="Insert the amount you&lt;br&gt;Already have" style="whiteSpace=wrap;html=1;rounded=0;fillColor=none;" parent="WIyWlLk6GJQsqaUBKTNV-1" vertex="1">
          <mxGeometry x="1486" y="880" width="120" height="60" as="geometry" />
        </mxCell>
        <mxCell id="jwFTyUWH3K64vKGYI3gZ-212" value="Start from Zero" style="whiteSpace=wrap;html=1;rounded=0;fillColor=none;" parent="WIyWlLk6GJQsqaUBKTNV-1" vertex="1">
          <mxGeometry x="1246" y="880" width="120" height="60" as="geometry" />
        </mxCell>
        <mxCell id="jwFTyUWH3K64vKGYI3gZ-213" value="&amp;nbsp; &amp;nbsp; &amp;nbsp; Accourding to this you will have this saving account &lt;br&gt;up until #CalcDate&amp;nbsp; &amp;nbsp; &amp;nbsp;" style="shape=parallelogram;perimeter=parallelogramPerimeter;whiteSpace=wrap;html=1;fixedSize=1;fillColor=none;" parent="WIyWlLk6GJQsqaUBKTNV-1" vertex="1">
          <mxGeometry x="1190" y="700" width="120" height="60" as="geometry" />
        </mxCell>
        <mxCell id="jwFTyUWH3K64vKGYI3gZ-214" value="Amount Please" style="whiteSpace=wrap;html=1;fillColor=none;" parent="WIyWlLk6GJQsqaUBKTNV-1" vertex="1">
          <mxGeometry x="1040" y="700" width="120" height="60" as="geometry" />
        </mxCell>
        <mxCell id="jwFTyUWH3K64vKGYI3gZ-215" value="Insert the date please" style="whiteSpace=wrap;html=1;fillColor=none;" parent="WIyWlLk6GJQsqaUBKTNV-1" vertex="1">
          <mxGeometry x="1200" y="560" width="120" height="60" as="geometry" />
        </mxCell>
        <mxCell id="jwFTyUWH3K64vKGYI3gZ-216" value="Amount&lt;br&gt;or&lt;br&gt;Date" style="rhombus;whiteSpace=wrap;html=1;fillColor=none;" parent="WIyWlLk6GJQsqaUBKTNV-1" vertex="1">
          <mxGeometry x="1060" y="550" width="80" height="80" as="geometry" />
        </mxCell>
        <mxCell id="jwFTyUWH3K64vKGYI3gZ-217" value="How long this saving&lt;br&gt;account is gonna last" style="whiteSpace=wrap;html=1;fillColor=none;" parent="WIyWlLk6GJQsqaUBKTNV-1" vertex="1">
          <mxGeometry x="880" y="560" width="120" height="60" as="geometry" />
        </mxCell>
        <mxCell id="jwFTyUWH3K64vKGYI3gZ-218" value="Is &lt;br&gt;Amount More then They have" style="rhombus;whiteSpace=wrap;html=1;fillColor=none;" parent="WIyWlLk6GJQsqaUBKTNV-1" vertex="1">
          <mxGeometry x="900" y="390" width="80" height="80" as="geometry" />
        </mxCell>
        <mxCell id="jwFTyUWH3K64vKGYI3gZ-219" value="Sorry Can&#39;t Create&lt;br&gt;Because &lt;br&gt;#Last_Option" style="whiteSpace=wrap;html=1;fillColor=none;" parent="WIyWlLk6GJQsqaUBKTNV-1" vertex="1">
          <mxGeometry x="1040" y="400" width="120" height="60" as="geometry" />
        </mxCell>
        <mxCell id="jwFTyUWH3K64vKGYI3gZ-223" value="" style="edgeStyle=orthogonalEdgeStyle;rounded=0;orthogonalLoop=1;jettySize=auto;html=1;" parent="WIyWlLk6GJQsqaUBKTNV-1" source="jwFTyUWH3K64vKGYI3gZ-220" target="jwFTyUWH3K64vKGYI3gZ-222" edge="1">
          <mxGeometry relative="1" as="geometry" />
        </mxCell>
        <mxCell id="jwFTyUWH3K64vKGYI3gZ-220" value="Please insert the amount" style="whiteSpace=wrap;html=1;fillColor=none;" parent="WIyWlLk6GJQsqaUBKTNV-1" vertex="1">
          <mxGeometry x="2760" y="180" width="120" height="60" as="geometry" />
        </mxCell>
        <mxCell id="jwFTyUWH3K64vKGYI3gZ-225" value="" style="edgeStyle=orthogonalEdgeStyle;rounded=0;orthogonalLoop=1;jettySize=auto;html=1;" parent="WIyWlLk6GJQsqaUBKTNV-1" source="jwFTyUWH3K64vKGYI3gZ-222" target="jwFTyUWH3K64vKGYI3gZ-224" edge="1">
          <mxGeometry relative="1" as="geometry" />
        </mxCell>
        <mxCell id="jwFTyUWH3K64vKGYI3gZ-228" value="Yes" style="edgeLabel;html=1;align=center;verticalAlign=middle;resizable=0;points=[];" parent="jwFTyUWH3K64vKGYI3gZ-225" vertex="1" connectable="0">
          <mxGeometry x="-0.1286" y="1" relative="1" as="geometry">
            <mxPoint as="offset" />
          </mxGeometry>
        </mxCell>
        <mxCell id="jwFTyUWH3K64vKGYI3gZ-230" value="" style="edgeStyle=orthogonalEdgeStyle;rounded=0;orthogonalLoop=1;jettySize=auto;html=1;" parent="WIyWlLk6GJQsqaUBKTNV-1" source="jwFTyUWH3K64vKGYI3gZ-222" target="jwFTyUWH3K64vKGYI3gZ-229" edge="1">
          <mxGeometry relative="1" as="geometry" />
        </mxCell>
        <mxCell id="jwFTyUWH3K64vKGYI3gZ-231" value="No" style="edgeLabel;html=1;align=center;verticalAlign=middle;resizable=0;points=[];" parent="jwFTyUWH3K64vKGYI3gZ-230" vertex="1" connectable="0">
          <mxGeometry x="-0.5577" relative="1" as="geometry">
            <mxPoint y="20" as="offset" />
          </mxGeometry>
        </mxCell>
        <mxCell id="jwFTyUWH3K64vKGYI3gZ-222" value="Is Amount more then available amount" style="rhombus;whiteSpace=wrap;html=1;fillColor=none;" parent="WIyWlLk6GJQsqaUBKTNV-1" vertex="1">
          <mxGeometry x="2960" y="170" width="80" height="80" as="geometry" />
        </mxCell>
        <mxCell id="jwFTyUWH3K64vKGYI3gZ-227" value="" style="edgeStyle=orthogonalEdgeStyle;rounded=0;orthogonalLoop=1;jettySize=auto;html=1;" parent="WIyWlLk6GJQsqaUBKTNV-1" source="jwFTyUWH3K64vKGYI3gZ-224" target="jwFTyUWH3K64vKGYI3gZ-226" edge="1">
          <mxGeometry relative="1" as="geometry" />
        </mxCell>
        <mxCell id="jwFTyUWH3K64vKGYI3gZ-224" value="Sorry you don&#39;t have enough money for that" style="whiteSpace=wrap;html=1;fillColor=none;" parent="WIyWlLk6GJQsqaUBKTNV-1" vertex="1">
          <mxGeometry x="3120" y="180" width="120" height="60" as="geometry" />
        </mxCell>
        <mxCell id="jwFTyUWH3K64vKGYI3gZ-226" value="Back to Dashboard" style="ellipse;whiteSpace=wrap;html=1;fillColor=#a20025;fontColor=#ffffff;strokeColor=#6F0000;" parent="WIyWlLk6GJQsqaUBKTNV-1" vertex="1">
          <mxGeometry x="3120" y="290" width="120" height="80" as="geometry" />
        </mxCell>
        <mxCell id="jwFTyUWH3K64vKGYI3gZ-229" value="Done" style="whiteSpace=wrap;html=1;fillColor=none;" parent="WIyWlLk6GJQsqaUBKTNV-1" vertex="1">
          <mxGeometry x="2940" y="340" width="120" height="60" as="geometry" />
        </mxCell>
        <mxCell id="jwFTyUWH3K64vKGYI3gZ-235" value="" style="edgeStyle=orthogonalEdgeStyle;rounded=0;orthogonalLoop=1;jettySize=auto;html=1;" parent="WIyWlLk6GJQsqaUBKTNV-1" source="jwFTyUWH3K64vKGYI3gZ-232" target="jwFTyUWH3K64vKGYI3gZ-234" edge="1">
          <mxGeometry relative="1" as="geometry" />
        </mxCell>
        <mxCell id="jwFTyUWH3K64vKGYI3gZ-232" value="Create a Budget" style="whiteSpace=wrap;html=1;fillColor=#e3c800;fontColor=#000000;strokeColor=#B09500;" parent="WIyWlLk6GJQsqaUBKTNV-1" vertex="1">
          <mxGeometry x="2560" y="360" width="120" height="60" as="geometry" />
        </mxCell>
        <mxCell id="jwFTyUWH3K64vKGYI3gZ-239" value="" style="edgeStyle=orthogonalEdgeStyle;rounded=0;orthogonalLoop=1;jettySize=auto;html=1;" parent="WIyWlLk6GJQsqaUBKTNV-1" source="jwFTyUWH3K64vKGYI3gZ-234" target="jwFTyUWH3K64vKGYI3gZ-238" edge="1">
          <mxGeometry relative="1" as="geometry" />
        </mxCell>
        <mxCell id="jwFTyUWH3K64vKGYI3gZ-234" value="You can create a budget beforehand" style="shape=parallelogram;perimeter=parallelogramPerimeter;whiteSpace=wrap;html=1;fixedSize=1;fillColor=none;" parent="WIyWlLk6GJQsqaUBKTNV-1" vertex="1">
          <mxGeometry x="2560" y="470" width="120" height="60" as="geometry" />
        </mxCell>
        <mxCell id="jwFTyUWH3K64vKGYI3gZ-241" value="" style="edgeStyle=orthogonalEdgeStyle;rounded=0;orthogonalLoop=1;jettySize=auto;html=1;" parent="WIyWlLk6GJQsqaUBKTNV-1" source="jwFTyUWH3K64vKGYI3gZ-238" target="jwFTyUWH3K64vKGYI3gZ-240" edge="1">
          <mxGeometry relative="1" as="geometry" />
        </mxCell>
        <mxCell id="jwFTyUWH3K64vKGYI3gZ-243" value="" style="edgeStyle=orthogonalEdgeStyle;rounded=0;orthogonalLoop=1;jettySize=auto;html=1;" parent="WIyWlLk6GJQsqaUBKTNV-1" source="jwFTyUWH3K64vKGYI3gZ-238" target="jwFTyUWH3K64vKGYI3gZ-242" edge="1">
          <mxGeometry relative="1" as="geometry">
            <Array as="points">
              <mxPoint x="2620" y="710" />
            </Array>
          </mxGeometry>
        </mxCell>
        <mxCell id="jwFTyUWH3K64vKGYI3gZ-245" value="" style="edgeStyle=orthogonalEdgeStyle;rounded=0;orthogonalLoop=1;jettySize=auto;html=1;" parent="WIyWlLk6GJQsqaUBKTNV-1" source="jwFTyUWH3K64vKGYI3gZ-238" target="jwFTyUWH3K64vKGYI3gZ-244" edge="1">
          <mxGeometry relative="1" as="geometry">
            <Array as="points">
              <mxPoint x="2620" y="800" />
            </Array>
          </mxGeometry>
        </mxCell>
        <mxCell id="jwFTyUWH3K64vKGYI3gZ-238" value="Choose option" style="rhombus;whiteSpace=wrap;html=1;fillColor=none;" parent="WIyWlLk6GJQsqaUBKTNV-1" vertex="1">
          <mxGeometry x="2580" y="585" width="80" height="80" as="geometry" />
        </mxCell>
        <mxCell id="jwFTyUWH3K64vKGYI3gZ-247" style="edgeStyle=orthogonalEdgeStyle;rounded=0;orthogonalLoop=1;jettySize=auto;html=1;" parent="WIyWlLk6GJQsqaUBKTNV-1" source="jwFTyUWH3K64vKGYI3gZ-240" target="jwFTyUWH3K64vKGYI3gZ-246" edge="1">
          <mxGeometry relative="1" as="geometry" />
        </mxCell>
        <mxCell id="jwFTyUWH3K64vKGYI3gZ-240" value="Daily budget" style="whiteSpace=wrap;html=1;fillColor=none;" parent="WIyWlLk6GJQsqaUBKTNV-1" vertex="1">
          <mxGeometry x="2720" y="595" width="120" height="60" as="geometry" />
        </mxCell>
        <mxCell id="jwFTyUWH3K64vKGYI3gZ-248" value="" style="edgeStyle=orthogonalEdgeStyle;rounded=0;orthogonalLoop=1;jettySize=auto;html=1;" parent="WIyWlLk6GJQsqaUBKTNV-1" source="jwFTyUWH3K64vKGYI3gZ-242" target="jwFTyUWH3K64vKGYI3gZ-246" edge="1">
          <mxGeometry relative="1" as="geometry" />
        </mxCell>
        <mxCell id="jwFTyUWH3K64vKGYI3gZ-242" value="Weekly budget" style="whiteSpace=wrap;html=1;fillColor=none;" parent="WIyWlLk6GJQsqaUBKTNV-1" vertex="1">
          <mxGeometry x="2720" y="680" width="120" height="60" as="geometry" />
        </mxCell>
        <mxCell id="jwFTyUWH3K64vKGYI3gZ-249" style="edgeStyle=orthogonalEdgeStyle;rounded=0;orthogonalLoop=1;jettySize=auto;html=1;" parent="WIyWlLk6GJQsqaUBKTNV-1" source="jwFTyUWH3K64vKGYI3gZ-244" target="jwFTyUWH3K64vKGYI3gZ-246" edge="1">
          <mxGeometry relative="1" as="geometry" />
        </mxCell>
        <mxCell id="jwFTyUWH3K64vKGYI3gZ-244" value="Monthly budget" style="whiteSpace=wrap;html=1;fillColor=none;" parent="WIyWlLk6GJQsqaUBKTNV-1" vertex="1">
          <mxGeometry x="2720" y="770" width="120" height="60" as="geometry" />
        </mxCell>
        <mxCell id="jwFTyUWH3K64vKGYI3gZ-256" value="" style="edgeStyle=orthogonalEdgeStyle;rounded=0;orthogonalLoop=1;jettySize=auto;html=1;" parent="WIyWlLk6GJQsqaUBKTNV-1" source="jwFTyUWH3K64vKGYI3gZ-246" target="jwFTyUWH3K64vKGYI3gZ-253" edge="1">
          <mxGeometry relative="1" as="geometry" />
        </mxCell>
        <mxCell id="jwFTyUWH3K64vKGYI3gZ-246" value="Budget Amount" style="shape=parallelogram;perimeter=parallelogramPerimeter;whiteSpace=wrap;html=1;fixedSize=1;" parent="WIyWlLk6GJQsqaUBKTNV-1" vertex="1">
          <mxGeometry x="2880" y="680" width="120" height="60" as="geometry" />
        </mxCell>
        <mxCell id="jwFTyUWH3K64vKGYI3gZ-250" value="" style="edgeStyle=orthogonalEdgeStyle;rounded=0;orthogonalLoop=1;jettySize=auto;html=1;" parent="WIyWlLk6GJQsqaUBKTNV-1" edge="1">
          <mxGeometry relative="1" as="geometry">
            <mxPoint x="3120" y="710" as="sourcePoint" />
            <mxPoint x="3200" y="580" as="targetPoint" />
          </mxGeometry>
        </mxCell>
        <mxCell id="jwFTyUWH3K64vKGYI3gZ-251" value="Yes" style="edgeLabel;html=1;align=center;verticalAlign=middle;resizable=0;points=[];" parent="jwFTyUWH3K64vKGYI3gZ-250" vertex="1" connectable="0">
          <mxGeometry x="-0.2056" y="-2" relative="1" as="geometry">
            <mxPoint as="offset" />
          </mxGeometry>
        </mxCell>
        <mxCell id="jwFTyUWH3K64vKGYI3gZ-252" value="" style="edgeStyle=orthogonalEdgeStyle;rounded=0;orthogonalLoop=1;jettySize=auto;html=1;" parent="WIyWlLk6GJQsqaUBKTNV-1" edge="1">
          <mxGeometry relative="1" as="geometry">
            <mxPoint x="3140" y="550" as="sourcePoint" />
            <mxPoint x="3080" y="550" as="targetPoint" />
          </mxGeometry>
        </mxCell>
        <mxCell id="jwFTyUWH3K64vKGYI3gZ-279" value="" style="edgeStyle=orthogonalEdgeStyle;rounded=0;orthogonalLoop=1;jettySize=auto;html=1;" parent="WIyWlLk6GJQsqaUBKTNV-1" source="jwFTyUWH3K64vKGYI3gZ-253" target="jwFTyUWH3K64vKGYI3gZ-278" edge="1">
          <mxGeometry relative="1" as="geometry" />
        </mxCell>
        <mxCell id="jwFTyUWH3K64vKGYI3gZ-280" value="No" style="edgeLabel;html=1;align=center;verticalAlign=middle;resizable=0;points=[];" parent="jwFTyUWH3K64vKGYI3gZ-279" vertex="1" connectable="0">
          <mxGeometry x="-0.1979" y="-1" relative="1" as="geometry">
            <mxPoint as="offset" />
          </mxGeometry>
        </mxCell>
        <mxCell id="jwFTyUWH3K64vKGYI3gZ-253" value="&lt;span style=&quot;color: rgb(240, 240, 240); font-family: Helvetica; font-size: 12px; font-style: normal; font-variant-ligatures: normal; font-variant-caps: normal; font-weight: 400; letter-spacing: normal; orphans: 2; text-align: center; text-indent: 0px; text-transform: none; widows: 2; word-spacing: 0px; -webkit-text-stroke-width: 0px; background-color: rgb(27, 29, 30); text-decoration-thickness: initial; text-decoration-style: initial; text-decoration-color: initial; float: none; display: inline !important;&quot;&gt;Is &lt;br&gt;Amount getting more then he &lt;br&gt;earns&lt;/span&gt;" style="rhombus;whiteSpace=wrap;html=1;fillColor=none;" parent="WIyWlLk6GJQsqaUBKTNV-1" vertex="1">
          <mxGeometry x="3040" y="670" width="80" height="80" as="geometry" />
        </mxCell>
        <mxCell id="jwFTyUWH3K64vKGYI3gZ-264" value="" style="edgeStyle=orthogonalEdgeStyle;rounded=0;orthogonalLoop=1;jettySize=auto;html=1;entryX=0.5;entryY=1;entryDx=0;entryDy=0;exitX=1;exitY=0;exitDx=0;exitDy=0;" parent="WIyWlLk6GJQsqaUBKTNV-1" source="jwFTyUWH3K64vKGYI3gZ-254" target="jwFTyUWH3K64vKGYI3gZ-263" edge="1">
          <mxGeometry relative="1" as="geometry">
            <Array as="points">
              <mxPoint x="3060" y="510" />
              <mxPoint x="3100" y="510" />
              <mxPoint x="3100" y="500" />
              <mxPoint x="3160" y="500" />
            </Array>
          </mxGeometry>
        </mxCell>
        <mxCell id="jwFTyUWH3K64vKGYI3gZ-272" value="Yes" style="edgeLabel;html=1;align=center;verticalAlign=middle;resizable=0;points=[];" parent="jwFTyUWH3K64vKGYI3gZ-264" vertex="1" connectable="0">
          <mxGeometry x="-0.5509" y="-2" relative="1" as="geometry">
            <mxPoint as="offset" />
          </mxGeometry>
        </mxCell>
        <mxCell id="jwFTyUWH3K64vKGYI3gZ-274" style="edgeStyle=orthogonalEdgeStyle;rounded=0;orthogonalLoop=1;jettySize=auto;html=1;entryX=1;entryY=0;entryDx=0;entryDy=0;" parent="WIyWlLk6GJQsqaUBKTNV-1" source="jwFTyUWH3K64vKGYI3gZ-254" target="jwFTyUWH3K64vKGYI3gZ-238" edge="1">
          <mxGeometry relative="1" as="geometry">
            <Array as="points">
              <mxPoint x="2640" y="550" />
            </Array>
          </mxGeometry>
        </mxCell>
        <mxCell id="jwFTyUWH3K64vKGYI3gZ-275" value="Option" style="edgeLabel;html=1;align=center;verticalAlign=middle;resizable=0;points=[];" parent="jwFTyUWH3K64vKGYI3gZ-274" vertex="1" connectable="0">
          <mxGeometry x="-0.1192" relative="1" as="geometry">
            <mxPoint as="offset" />
          </mxGeometry>
        </mxCell>
        <mxCell id="jwFTyUWH3K64vKGYI3gZ-276" style="edgeStyle=orthogonalEdgeStyle;rounded=0;orthogonalLoop=1;jettySize=auto;html=1;exitX=0;exitY=1;exitDx=0;exitDy=0;entryX=0.75;entryY=0;entryDx=0;entryDy=0;" parent="WIyWlLk6GJQsqaUBKTNV-1" source="jwFTyUWH3K64vKGYI3gZ-254" target="jwFTyUWH3K64vKGYI3gZ-246" edge="1">
          <mxGeometry relative="1" as="geometry" />
        </mxCell>
        <mxCell id="jwFTyUWH3K64vKGYI3gZ-277" value="Amount" style="edgeLabel;html=1;align=center;verticalAlign=middle;resizable=0;points=[];" parent="jwFTyUWH3K64vKGYI3gZ-276" vertex="1" connectable="0">
          <mxGeometry x="0.0375" y="1" relative="1" as="geometry">
            <mxPoint x="-12" y="-6" as="offset" />
          </mxGeometry>
        </mxCell>
        <mxCell id="jwFTyUWH3K64vKGYI3gZ-254" value="&lt;font style=&quot;font-size: 9px;&quot;&gt;Want &lt;br&gt;to change &lt;br&gt;amount or option &lt;br&gt;or discharge&lt;br&gt;&lt;br&gt;&lt;/font&gt;" style="rhombus;whiteSpace=wrap;html=1;fillColor=none;" parent="WIyWlLk6GJQsqaUBKTNV-1" vertex="1">
          <mxGeometry x="3000" y="510" width="80" height="80" as="geometry" />
        </mxCell>
        <mxCell id="jwFTyUWH3K64vKGYI3gZ-255" value="Sorry Your #Second_Last_Option&lt;br&gt;is not working with you current income" style="whiteSpace=wrap;html=1;fillColor=none;" parent="WIyWlLk6GJQsqaUBKTNV-1" vertex="1">
          <mxGeometry x="3140" y="520" width="120" height="60" as="geometry" />
        </mxCell>
        <mxCell id="jwFTyUWH3K64vKGYI3gZ-268" value="" style="edgeStyle=orthogonalEdgeStyle;rounded=0;orthogonalLoop=1;jettySize=auto;html=1;" parent="WIyWlLk6GJQsqaUBKTNV-1" source="jwFTyUWH3K64vKGYI3gZ-263" target="jwFTyUWH3K64vKGYI3gZ-226" edge="1">
          <mxGeometry relative="1" as="geometry" />
        </mxCell>
        <mxCell id="jwFTyUWH3K64vKGYI3gZ-269" value="Yes" style="edgeLabel;html=1;align=center;verticalAlign=middle;resizable=0;points=[];" parent="jwFTyUWH3K64vKGYI3gZ-268" vertex="1" connectable="0">
          <mxGeometry x="-0.0762" relative="1" as="geometry">
            <mxPoint as="offset" />
          </mxGeometry>
        </mxCell>
        <mxCell id="jwFTyUWH3K64vKGYI3gZ-270" style="edgeStyle=orthogonalEdgeStyle;rounded=0;orthogonalLoop=1;jettySize=auto;html=1;entryX=0.5;entryY=0;entryDx=0;entryDy=0;" parent="WIyWlLk6GJQsqaUBKTNV-1" source="jwFTyUWH3K64vKGYI3gZ-263" target="jwFTyUWH3K64vKGYI3gZ-254" edge="1">
          <mxGeometry relative="1" as="geometry" />
        </mxCell>
        <mxCell id="jwFTyUWH3K64vKGYI3gZ-271" value="No" style="edgeLabel;html=1;align=center;verticalAlign=middle;resizable=0;points=[];" parent="jwFTyUWH3K64vKGYI3gZ-270" vertex="1" connectable="0">
          <mxGeometry x="-0.2735" y="2" relative="1" as="geometry">
            <mxPoint as="offset" />
          </mxGeometry>
        </mxCell>
        <mxCell id="jwFTyUWH3K64vKGYI3gZ-263" value="Then&lt;br&gt;Can i Discharge &lt;br&gt;this" style="rhombus;whiteSpace=wrap;html=1;fillColor=none;" parent="WIyWlLk6GJQsqaUBKTNV-1" vertex="1">
          <mxGeometry x="3120" y="410" width="80" height="80" as="geometry" />
        </mxCell>
        <mxCell id="jwFTyUWH3K64vKGYI3gZ-284" value="" style="edgeStyle=orthogonalEdgeStyle;rounded=0;orthogonalLoop=1;jettySize=auto;html=1;" parent="WIyWlLk6GJQsqaUBKTNV-1" source="jwFTyUWH3K64vKGYI3gZ-278" target="jwFTyUWH3K64vKGYI3gZ-283" edge="1">
          <mxGeometry relative="1" as="geometry" />
        </mxCell>
        <mxCell id="jwFTyUWH3K64vKGYI3gZ-278" value="Well last option" style="whiteSpace=wrap;html=1;fillColor=none;" parent="WIyWlLk6GJQsqaUBKTNV-1" vertex="1">
          <mxGeometry x="3020" y="840" width="120" height="60" as="geometry" />
        </mxCell>
        <mxCell id="jwFTyUWH3K64vKGYI3gZ-286" value="" style="edgeStyle=orthogonalEdgeStyle;rounded=0;orthogonalLoop=1;jettySize=auto;html=1;" parent="WIyWlLk6GJQsqaUBKTNV-1" source="jwFTyUWH3K64vKGYI3gZ-283" target="jwFTyUWH3K64vKGYI3gZ-285" edge="1">
          <mxGeometry relative="1" as="geometry">
            <Array as="points">
              <mxPoint x="2990" y="990" />
              <mxPoint x="2990" y="870" />
            </Array>
          </mxGeometry>
        </mxCell>
        <mxCell id="jwFTyUWH3K64vKGYI3gZ-283" value="&lt;span style=&quot;white-space: pre;&quot;&gt;&#x9;&lt;/span&gt;What do you want me to do &lt;br&gt;with the Left over amount" style="shape=parallelogram;perimeter=parallelogramPerimeter;whiteSpace=wrap;html=1;fixedSize=1;" parent="WIyWlLk6GJQsqaUBKTNV-1" vertex="1">
          <mxGeometry x="3020" y="960" width="120" height="60" as="geometry" />
        </mxCell>
        <mxCell id="jwFTyUWH3K64vKGYI3gZ-289" value="" style="edgeStyle=orthogonalEdgeStyle;rounded=0;orthogonalLoop=1;jettySize=auto;html=1;" parent="WIyWlLk6GJQsqaUBKTNV-1" source="jwFTyUWH3K64vKGYI3gZ-285" target="jwFTyUWH3K64vKGYI3gZ-288" edge="1">
          <mxGeometry relative="1" as="geometry" />
        </mxCell>
        <mxCell id="jwFTyUWH3K64vKGYI3gZ-291" value="" style="edgeStyle=orthogonalEdgeStyle;rounded=0;orthogonalLoop=1;jettySize=auto;html=1;" parent="WIyWlLk6GJQsqaUBKTNV-1" source="jwFTyUWH3K64vKGYI3gZ-285" target="jwFTyUWH3K64vKGYI3gZ-290" edge="1">
          <mxGeometry relative="1" as="geometry" />
        </mxCell>
        <mxCell id="jwFTyUWH3K64vKGYI3gZ-285" value="Options" style="rhombus;whiteSpace=wrap;html=1;" parent="WIyWlLk6GJQsqaUBKTNV-1" vertex="1">
          <mxGeometry x="2880" y="830" width="80" height="80" as="geometry" />
        </mxCell>
        <mxCell id="jwFTyUWH3K64vKGYI3gZ-293" style="edgeStyle=orthogonalEdgeStyle;rounded=0;orthogonalLoop=1;jettySize=auto;html=1;entryX=0.5;entryY=0;entryDx=0;entryDy=0;" parent="WIyWlLk6GJQsqaUBKTNV-1" source="jwFTyUWH3K64vKGYI3gZ-288" target="jwFTyUWH3K64vKGYI3gZ-292" edge="1">
          <mxGeometry relative="1" as="geometry" />
        </mxCell>
        <mxCell id="jwFTyUWH3K64vKGYI3gZ-288" value="Insert into this saving account" style="whiteSpace=wrap;html=1;" parent="WIyWlLk6GJQsqaUBKTNV-1" vertex="1">
          <mxGeometry x="2720" y="870" width="120" height="60" as="geometry" />
        </mxCell>
        <mxCell id="jwFTyUWH3K64vKGYI3gZ-294" style="edgeStyle=orthogonalEdgeStyle;rounded=0;orthogonalLoop=1;jettySize=auto;html=1;entryX=1;entryY=0.5;entryDx=0;entryDy=0;" parent="WIyWlLk6GJQsqaUBKTNV-1" source="jwFTyUWH3K64vKGYI3gZ-290" target="jwFTyUWH3K64vKGYI3gZ-292" edge="1">
          <mxGeometry relative="1" as="geometry" />
        </mxCell>
        <mxCell id="jwFTyUWH3K64vKGYI3gZ-290" value="Just put it back into the Normal account" style="whiteSpace=wrap;html=1;" parent="WIyWlLk6GJQsqaUBKTNV-1" vertex="1">
          <mxGeometry x="2810" y="960" width="120" height="60" as="geometry" />
        </mxCell>
        <mxCell id="jwFTyUWH3K64vKGYI3gZ-292" value="You are all done" style="whiteSpace=wrap;html=1;fillColor=#008a00;fontColor=#ffffff;strokeColor=#005700;" parent="WIyWlLk6GJQsqaUBKTNV-1" vertex="1">
          <mxGeometry x="2600" y="1030" width="120" height="60" as="geometry" />
        </mxCell>
        <mxCell id="z_kE8j-IcZDau5Q-zSbC-4" style="edgeStyle=orthogonalEdgeStyle;rounded=0;orthogonalLoop=1;jettySize=auto;html=1;entryX=1;entryY=0.5;entryDx=0;entryDy=0;exitX=0.5;exitY=1;exitDx=0;exitDy=0;" edge="1" parent="WIyWlLk6GJQsqaUBKTNV-1" source="z_kE8j-IcZDau5Q-zSbC-2" target="jwFTyUWH3K64vKGYI3gZ-207">
          <mxGeometry relative="1" as="geometry" />
        </mxCell>
        <mxCell id="z_kE8j-IcZDau5Q-zSbC-2" value="Loan Description" style="whiteSpace=wrap;html=1;fillColor=none;" vertex="1" parent="WIyWlLk6GJQsqaUBKTNV-1">
          <mxGeometry x="1900" y="160" width="120" height="60" as="geometry" />
        </mxCell>
        <mxCell id="z_kE8j-IcZDau5Q-zSbC-5" value="" style="edgeStyle=orthogonalEdgeStyle;rounded=0;orthogonalLoop=1;jettySize=auto;html=1;exitX=1;exitY=0.5;exitDx=0;exitDy=0;entryX=0;entryY=0.5;entryDx=0;entryDy=0;" edge="1" parent="WIyWlLk6GJQsqaUBKTNV-1" target="z_kE8j-IcZDau5Q-zSbC-7" source="jwFTyUWH3K64vKGYI3gZ-51">
          <mxGeometry relative="1" as="geometry">
            <mxPoint x="1020" y="200" as="sourcePoint" />
          </mxGeometry>
        </mxCell>
        <mxCell id="z_kE8j-IcZDau5Q-zSbC-6" style="edgeStyle=orthogonalEdgeStyle;rounded=0;orthogonalLoop=1;jettySize=auto;html=1;entryX=1;entryY=0.5;entryDx=0;entryDy=0;exitX=0.5;exitY=1;exitDx=0;exitDy=0;" edge="1" parent="WIyWlLk6GJQsqaUBKTNV-1" source="z_kE8j-IcZDau5Q-zSbC-7" target="jwFTyUWH3K64vKGYI3gZ-53">
          <mxGeometry relative="1" as="geometry">
            <mxPoint x="1000" y="320" as="targetPoint" />
          </mxGeometry>
        </mxCell>
        <mxCell id="z_kE8j-IcZDau5Q-zSbC-7" value="Saving Description" style="whiteSpace=wrap;html=1;fillColor=none;" vertex="1" parent="WIyWlLk6GJQsqaUBKTNV-1">
          <mxGeometry x="1100" y="160" width="120" height="60" as="geometry" />
        </mxCell>
      </root>
    </mxGraphModel>
  </diagram>
</mxfile>
